<mxfile host="app.diagrams.net" modified="2021-04-03T09:12:37.297Z" agent="5.0 (Macintosh; Intel Mac OS X 10_15_6) AppleWebKit/605.1.15 (KHTML, like Gecko) Version/14.0.3 Safari/605.1.15" etag="YFz70-Skl1hZQqlICK94" version="14.5.6" type="github" pages="2">
  <diagram id="GF7U1PxuMcIbTAeL1bwN" name="Classes">
    <mxGraphModel dx="1014" dy="742" grid="1" gridSize="10" guides="1" tooltips="1" connect="1" arrows="1" fold="1" page="1" pageScale="1" pageWidth="850" pageHeight="1100" math="0" shadow="0">
      <root>
        <mxCell id="0" />
        <mxCell id="1" parent="0" />
        <UserObject label="ParseDefinitionEntry" lucidchartObjectId="U2H-7nr1POGL" id="C1s8JPBl7vQQ6bppYc5R-1">
          <mxCell style="html=1;overflow=block;blockSpacing=1;whiteSpace=wrap;;whiteSpace=wrap;fontSize=11;fontColor=#333333;spacing=9;strokeColor=#5e5e5e;strokeOpacity=100;rounded=1;absoluteArcSize=1;arcSize=9;strokeWidth=2;" parent="1" vertex="1">
            <mxGeometry x="90" y="310" width="120" height="90" as="geometry" />
          </mxCell>
        </UserObject>
        <UserObject label="ParseDefinition" lucidchartObjectId="U2H-xL2M04fB" id="C1s8JPBl7vQQ6bppYc5R-2">
          <mxCell style="html=1;overflow=block;blockSpacing=1;whiteSpace=wrap;;whiteSpace=wrap;fontSize=16;fontColor=#333333;spacing=9;strokeColor=#5e5e5e;strokeOpacity=100;rounded=1;absoluteArcSize=1;arcSize=9;strokeWidth=2;" parent="1" vertex="1">
            <mxGeometry x="90" y="90" width="120" height="90" as="geometry" />
          </mxCell>
        </UserObject>
        <UserObject label="StdLogEntry" lucidchartObjectId="U2H-4mlPft3K" id="C1s8JPBl7vQQ6bppYc5R-3">
          <mxCell style="html=1;overflow=block;blockSpacing=1;whiteSpace=wrap;;whiteSpace=wrap;fontSize=16;fontColor=#333333;spacing=9;strokeColor=#5e5e5e;strokeOpacity=100;rounded=1;absoluteArcSize=1;arcSize=9;strokeWidth=2;" parent="1" vertex="1">
            <mxGeometry x="645" y="285" width="120" height="90" as="geometry" />
          </mxCell>
        </UserObject>
        <UserObject label="GenericEntry" lucidchartObjectId="U2H-q0d7ACyj" id="C1s8JPBl7vQQ6bppYc5R-4">
          <mxCell style="html=1;overflow=block;blockSpacing=1;whiteSpace=wrap;;whiteSpace=wrap;fontSize=16;fontColor=#333333;spacing=9;strokeColor=#5e5e5e;strokeOpacity=100;rounded=1;absoluteArcSize=1;arcSize=9;strokeWidth=2;" parent="1" vertex="1">
            <mxGeometry x="550" y="590" width="120" height="90" as="geometry" />
          </mxCell>
        </UserObject>
        <UserObject label="" lucidchartObjectId="U2H-Jx7dwYqJ" id="C1s8JPBl7vQQ6bppYc5R-5">
          <mxCell style="html=1;jettySize=18;whiteSpace=wrap;fontSize=11;strokeColor=#5E5E5E;strokeWidth=2;rounded=1;arcSize=12;edgeStyle=orthogonalEdgeStyle;startArrow=diamond;startFill=0;;endArrow=none;;exitX=0.5;exitY=1.013;exitPerimeter=0;entryX=0.5;entryY=-0.012;entryPerimeter=0;" parent="1" source="C1s8JPBl7vQQ6bppYc5R-2" target="C1s8JPBl7vQQ6bppYc5R-1" edge="1">
            <mxGeometry width="100" height="100" relative="1" as="geometry">
              <Array as="points" />
            </mxGeometry>
          </mxCell>
        </UserObject>
        <mxCell id="C1s8JPBl7vQQ6bppYc5R-7" value="" style="html=1;overflow=block;blockSpacing=1;whiteSpace=wrap;strokeColor=none;fillColor=none;" parent="1" vertex="1">
          <mxGeometry x="760" y="590" width="120" height="90" as="geometry" />
        </mxCell>
        <mxCell id="C1s8JPBl7vQQ6bppYc5R-8" value="" style="part=1;whiteSpace=wrap;fontSize=16;fontColor=#333333;spacing=4;strokeColor=#5e5e5e;strokeOpacity=100;rounded=1;absoluteArcSize=1;arcSize=9;strokeWidth=2;" parent="C1s8JPBl7vQQ6bppYc5R-7" vertex="1">
          <mxGeometry x="12" width="108" height="81" as="geometry" />
        </mxCell>
        <mxCell id="C1s8JPBl7vQQ6bppYc5R-9" value="Self-Defined Entries" style="part=1;whiteSpace=wrap;fontSize=16;fontColor=#333333;whiteSpace=wrap;spacing=4;strokeColor=#5e5e5e;strokeOpacity=100;rounded=1;absoluteArcSize=1;arcSize=9;strokeWidth=2;" parent="C1s8JPBl7vQQ6bppYc5R-7" vertex="1">
          <mxGeometry y="9" width="108" height="81" as="geometry" />
        </mxCell>
        <UserObject label="StringParseFactory" lucidchartObjectId="U2H-WQcIoU4e" id="C1s8JPBl7vQQ6bppYc5R-11">
          <mxCell style="html=1;overflow=block;blockSpacing=1;whiteSpace=wrap;;whiteSpace=wrap;fontSize=11;fontColor=#333333;spacing=9;strokeColor=#5e5e5e;strokeOpacity=100;rounded=1;absoluteArcSize=1;arcSize=9;strokeWidth=2;" parent="1" vertex="1">
            <mxGeometry x="360" y="240" width="120" height="90" as="geometry" />
          </mxCell>
        </UserObject>
        <UserObject label="LogData" lucidchartObjectId="w4H-~2cmrp-e" id="C1s8JPBl7vQQ6bppYc5R-12">
          <mxCell style="html=1;overflow=block;blockSpacing=1;whiteSpace=wrap;;whiteSpace=wrap;fontSize=16;fontColor=#333333;spacing=9;strokeColor=#5e5e5e;strokeOpacity=100;rounded=1;absoluteArcSize=1;arcSize=9;strokeWidth=2;" parent="1" vertex="1">
            <mxGeometry x="645" y="60" width="120" height="90" as="geometry" />
          </mxCell>
        </UserObject>
        <UserObject label="" lucidchartObjectId="D4H-_0HRnadn" id="C1s8JPBl7vQQ6bppYc5R-13">
          <mxCell style="html=1;jettySize=18;whiteSpace=wrap;fontSize=11;strokeColor=#5E5E5E;strokeWidth=2;rounded=1;arcSize=12;edgeStyle=orthogonalEdgeStyle;startArrow=diamond;startFill=0;;endArrow=none;;exitX=0.5;exitY=1.013;exitPerimeter=0;entryX=0.5;entryY=-0.012;entryPerimeter=0;" parent="1" source="C1s8JPBl7vQQ6bppYc5R-12" target="C1s8JPBl7vQQ6bppYc5R-3" edge="1">
            <mxGeometry width="100" height="100" relative="1" as="geometry">
              <Array as="points" />
            </mxGeometry>
          </mxCell>
        </UserObject>
        <mxCell id="C1s8JPBl7vQQ6bppYc5R-14" value="Extends" style="endArrow=block;endSize=16;endFill=0;html=1;entryX=0.5;entryY=1;entryDx=0;entryDy=0;exitX=0.5;exitY=0;exitDx=0;exitDy=0;edgeStyle=orthogonalEdgeStyle;" parent="1" source="C1s8JPBl7vQQ6bppYc5R-4" target="C1s8JPBl7vQQ6bppYc5R-3" edge="1">
          <mxGeometry width="160" relative="1" as="geometry">
            <mxPoint x="600" y="580" as="sourcePoint" />
            <mxPoint x="720" y="410" as="targetPoint" />
          </mxGeometry>
        </mxCell>
        <mxCell id="C1s8JPBl7vQQ6bppYc5R-15" value="Extends" style="endArrow=block;endSize=16;endFill=0;html=1;exitX=0.5;exitY=0;exitDx=0;exitDy=0;edgeStyle=orthogonalEdgeStyle;entryX=0.5;entryY=1;entryDx=0;entryDy=0;" parent="1" source="C1s8JPBl7vQQ6bppYc5R-8" target="C1s8JPBl7vQQ6bppYc5R-3" edge="1">
          <mxGeometry width="160" relative="1" as="geometry">
            <mxPoint x="380" y="490" as="sourcePoint" />
            <mxPoint x="710" y="380" as="targetPoint" />
          </mxGeometry>
        </mxCell>
      </root>
    </mxGraphModel>
  </diagram>
  <diagram id="LirX-YWR1LI0kx1sx8zC" name="Processes">
    <mxGraphModel dx="1014" dy="742" grid="1" gridSize="10" guides="1" tooltips="1" connect="1" arrows="1" fold="1" page="1" pageScale="1" pageWidth="850" pageHeight="1100" math="0" shadow="0">
      <root>
        <mxCell id="dgaH53lybmkEFGB52cs7-0" />
        <mxCell id="dgaH53lybmkEFGB52cs7-1" parent="dgaH53lybmkEFGB52cs7-0" />
        <mxCell id="dgaH53lybmkEFGB52cs7-28" style="edgeStyle=orthogonalEdgeStyle;rounded=0;orthogonalLoop=1;jettySize=auto;html=1;exitX=1;exitY=0.5;exitDx=0;exitDy=0;entryX=0;entryY=0.25;entryDx=0;entryDy=0;" edge="1" parent="dgaH53lybmkEFGB52cs7-1" source="dgaH53lybmkEFGB52cs7-22" target="dgaH53lybmkEFGB52cs7-27">
          <mxGeometry relative="1" as="geometry" />
        </mxCell>
        <mxCell id="dgaH53lybmkEFGB52cs7-22" value="Parse Definition" style="rounded=0;whiteSpace=wrap;html=1;" vertex="1" parent="dgaH53lybmkEFGB52cs7-1">
          <mxGeometry x="230" y="120" width="120" height="60" as="geometry" />
        </mxCell>
        <mxCell id="dgaH53lybmkEFGB52cs7-26" value="" style="group" vertex="1" connectable="0" parent="dgaH53lybmkEFGB52cs7-1">
          <mxGeometry x="230" y="315" width="112" height="78" as="geometry" />
        </mxCell>
        <mxCell id="dgaH53lybmkEFGB52cs7-25" value="" style="strokeWidth=2;html=1;shape=mxgraph.flowchart.document2;whiteSpace=wrap;size=0.25;shadow=1;" vertex="1" parent="dgaH53lybmkEFGB52cs7-26">
          <mxGeometry x="12" y="18" width="100" height="60" as="geometry" />
        </mxCell>
        <mxCell id="dgaH53lybmkEFGB52cs7-24" value="" style="strokeWidth=2;html=1;shape=mxgraph.flowchart.document2;whiteSpace=wrap;size=0.25;shadow=1;" vertex="1" parent="dgaH53lybmkEFGB52cs7-26">
          <mxGeometry x="5" y="10" width="100" height="60" as="geometry" />
        </mxCell>
        <mxCell id="dgaH53lybmkEFGB52cs7-23" value="Logfiles" style="strokeWidth=2;html=1;shape=mxgraph.flowchart.document2;whiteSpace=wrap;size=0.25;" vertex="1" parent="dgaH53lybmkEFGB52cs7-26">
          <mxGeometry width="100" height="60" as="geometry" />
        </mxCell>
        <mxCell id="dgaH53lybmkEFGB52cs7-45" style="edgeStyle=orthogonalEdgeStyle;rounded=0;orthogonalLoop=1;jettySize=auto;html=1;exitX=1;exitY=0.5;exitDx=0;exitDy=0;entryX=0;entryY=0.5;entryDx=0;entryDy=0;strokeColor=#000000;fontColor=#000000;" edge="1" parent="dgaH53lybmkEFGB52cs7-1" source="dgaH53lybmkEFGB52cs7-27" target="dgaH53lybmkEFGB52cs7-42">
          <mxGeometry relative="1" as="geometry" />
        </mxCell>
        <mxCell id="dgaH53lybmkEFGB52cs7-27" value="StringParseFactory" style="rounded=0;whiteSpace=wrap;html=1;shadow=1;" vertex="1" parent="dgaH53lybmkEFGB52cs7-1">
          <mxGeometry x="410" y="217" width="120" height="60" as="geometry" />
        </mxCell>
        <mxCell id="dgaH53lybmkEFGB52cs7-35" value="Group By Definition" style="edgeStyle=orthogonalEdgeStyle;rounded=0;orthogonalLoop=1;jettySize=auto;html=1;exitX=1;exitY=0.5;exitDx=0;exitDy=0;entryX=0;entryY=0.5;entryDx=0;entryDy=0;entryPerimeter=0;fontColor=#009900;strokeColor=#009900;" edge="1" parent="dgaH53lybmkEFGB52cs7-1" source="dgaH53lybmkEFGB52cs7-42" target="dgaH53lybmkEFGB52cs7-34">
          <mxGeometry relative="1" as="geometry">
            <mxPoint x="810" y="250" as="sourcePoint" />
          </mxGeometry>
        </mxCell>
        <mxCell id="dgaH53lybmkEFGB52cs7-39" value="AssertBy Definition Entry" style="edgeStyle=orthogonalEdgeStyle;rounded=0;orthogonalLoop=1;jettySize=auto;html=1;exitX=1;exitY=0.5;exitDx=0;exitDy=0;entryX=0;entryY=0.5;entryDx=0;entryDy=0;entryPerimeter=0;strokeColor=#009900;fontColor=#009900;" edge="1" parent="dgaH53lybmkEFGB52cs7-1" source="dgaH53lybmkEFGB52cs7-42" target="dgaH53lybmkEFGB52cs7-38">
          <mxGeometry relative="1" as="geometry">
            <mxPoint x="810" y="250" as="sourcePoint" />
          </mxGeometry>
        </mxCell>
        <mxCell id="dgaH53lybmkEFGB52cs7-32" style="edgeStyle=orthogonalEdgeStyle;rounded=0;orthogonalLoop=1;jettySize=auto;html=1;exitX=0.5;exitY=1;exitDx=0;exitDy=0;" edge="1" parent="dgaH53lybmkEFGB52cs7-1">
          <mxGeometry relative="1" as="geometry">
            <mxPoint x="650" y="282" as="sourcePoint" />
            <mxPoint x="650" y="282" as="targetPoint" />
          </mxGeometry>
        </mxCell>
        <mxCell id="dgaH53lybmkEFGB52cs7-34" value="Group By" style="strokeWidth=2;html=1;shape=mxgraph.flowchart.terminator;whiteSpace=wrap;shadow=1;strokeColor=#009900;fontColor=#009900;" vertex="1" parent="dgaH53lybmkEFGB52cs7-1">
          <mxGeometry x="870" y="80" width="100" height="60" as="geometry" />
        </mxCell>
        <mxCell id="dgaH53lybmkEFGB52cs7-36" value="CSV" style="strokeWidth=2;html=1;shape=mxgraph.flowchart.document2;whiteSpace=wrap;size=0.25;shadow=1;fontColor=#009900;strokeColor=#009900;" vertex="1" parent="dgaH53lybmkEFGB52cs7-1">
          <mxGeometry x="870" y="217" width="100" height="60" as="geometry" />
        </mxCell>
        <mxCell id="dgaH53lybmkEFGB52cs7-38" value="Assertions" style="strokeWidth=2;html=1;shape=mxgraph.flowchart.terminator;whiteSpace=wrap;shadow=1;strokeColor=#009900;fontColor=#009900;" vertex="1" parent="dgaH53lybmkEFGB52cs7-1">
          <mxGeometry x="870" y="400" width="100" height="60" as="geometry" />
        </mxCell>
        <mxCell id="dgaH53lybmkEFGB52cs7-41" value="Import" style="edgeStyle=orthogonalEdgeStyle;rounded=0;orthogonalLoop=1;jettySize=auto;html=1;exitX=1;exitY=0.5;exitDx=0;exitDy=0;exitPerimeter=0;entryX=0;entryY=0.5;entryDx=0;entryDy=0;strokeColor=#009900;fontColor=#009900;" edge="1" parent="dgaH53lybmkEFGB52cs7-1" source="dgaH53lybmkEFGB52cs7-40" target="dgaH53lybmkEFGB52cs7-22">
          <mxGeometry relative="1" as="geometry" />
        </mxCell>
        <mxCell id="dgaH53lybmkEFGB52cs7-40" value="JSON" style="strokeWidth=2;html=1;shape=mxgraph.flowchart.document2;whiteSpace=wrap;size=0.25;shadow=1;fontColor=#009900;strokeColor=#009900;" vertex="1" parent="dgaH53lybmkEFGB52cs7-1">
          <mxGeometry x="30" y="120" width="100" height="60" as="geometry" />
        </mxCell>
        <mxCell id="dgaH53lybmkEFGB52cs7-46" value="Export" style="edgeStyle=orthogonalEdgeStyle;rounded=0;orthogonalLoop=1;jettySize=auto;html=1;exitX=1;exitY=0.5;exitDx=0;exitDy=0;entryX=0;entryY=0.5;entryDx=0;entryDy=0;entryPerimeter=0;strokeColor=#009900;fontColor=#009900;" edge="1" parent="dgaH53lybmkEFGB52cs7-1" source="dgaH53lybmkEFGB52cs7-42" target="dgaH53lybmkEFGB52cs7-36">
          <mxGeometry x="0.4444" relative="1" as="geometry">
            <mxPoint as="offset" />
          </mxGeometry>
        </mxCell>
        <mxCell id="dgaH53lybmkEFGB52cs7-42" value="LogData" style="rounded=0;whiteSpace=wrap;html=1;shadow=1;" vertex="1" parent="dgaH53lybmkEFGB52cs7-1">
          <mxGeometry x="570" y="217" width="120" height="60" as="geometry" />
        </mxCell>
        <mxCell id="dgaH53lybmkEFGB52cs7-44" style="edgeStyle=orthogonalEdgeStyle;rounded=0;orthogonalLoop=1;jettySize=auto;html=1;exitX=1;exitY=0.5;exitDx=0;exitDy=0;exitPerimeter=0;entryX=0;entryY=0.75;entryDx=0;entryDy=0;fontColor=#000000;" edge="1" parent="dgaH53lybmkEFGB52cs7-1" source="dgaH53lybmkEFGB52cs7-24" target="dgaH53lybmkEFGB52cs7-27">
          <mxGeometry relative="1" as="geometry" />
        </mxCell>
      </root>
    </mxGraphModel>
  </diagram>
</mxfile>
